<?xml version="1.0" encoding="UTF-8" standalone="no"?>
<!-- Copyright 2017 mathsisfun.com -->
<svg xmlns="http://www.w3.org/2000/svg" xmlns:xlink="http://www.w3.org/1999/xlink" style="fill:#f260d2; stroke-color:#f260d2;" width="86" height="47.5" version="1.1">
<defs>
<path id="id01" d="m 21,287 q 1,6 3,16 2,10 12,38 10,28 20,47 10,19 33,37 23,18 46,17 36,0 60,-18 24,-18 30,-34 6,-16 6,-21 0,-2 1,-2 l 11,11 q 61,64 139,64 54,0 87,-27 33,-27 34,-79 1,-52 -38,-157 -39,-105 -38,-127 0,-26 17,-26 6,0 9,1 29,5 52,38 23,33 35,80 2,8 20,8 20,0 20,-8 0,-1 -4,-15 -8,-29 -22,-57 -14,-28 -46,-56 -32,-28 -69,-27 -47,0 -68,27 -21,27 -21,56 0,19 36,120 36,101 37,152 0,59 -44,59 h -5 Q 288,404 229,303 L 222,291 189,157 Q 156,26 151,16 138,-11 108,-11 95,-11 87,-5 79,1 76,7 q -3,6 -2,10 0,13 38,163 38,150 40,163 1,5 1,23 0,39 -24,39 -38,0 -63,-100 -6,-20 -6,-21 -2,-6 -19,-6 H 27 q -6,6 -6,9 z"/>
<path id="id02" d="m 78,661 q 0,21 18,38 18,17 42,17 24,0 42,-16 18,-16 19,-39 0,-7 -20,-229 -20,-222 -21,-226 -2,-8 -19,-8 -18,0 -20,8 -1,3 -21,225 Q 78,653 78,661 Z M 79,61 q 0,28 18,44 18,16 44,16 23,-2 40,-17 Q 198,89 198,61 198,31 181,16 164,1 139,1 114,1 97,16 80,31 79,61 Z"/>
<path id="id03" d="m 21,287 q 1,3 2,8 1,5 5,22 4,17 10,31 6,14 15,33 9,19 20,30 11,11 26,22 15,11 33,9 29,0 51,-12 22,-12 31,-22 9,-10 11,-20 2,-6 3,-6 1,0 8,7 48,52 111,52 h 3 q 48,0 72,-41 8,-19 8,-37 0,-30 -13,-48 -13,-18 -26,-23 -13,-5 -25,-4 -20,0 -32,11 -12,11 -12,29 0,48 56,64 -22,13 -36,13 -56,0 -103,-74 Q 229,315 224,298 219,281 190,165 156,25 151,16 138,-11 108,-11 95,-11 87,-5 79,1 76,7 q -3,6 -2,10 0,13 40,172 40,159 40,177 0,39 -26,39 -21,0 -36,-28 Q 77,349 68,316 59,283 57,280 55,278 41,278 H 27 q -6,6 -6,9 z"/>
<path id="id04" d="m 94,250 q 0,69 10,131 10,62 23,107 13,45 37,88 24,43 38,67 14,24 42,52 28,28 33,34 5,6 25,21 h 13 4 q 14,0 14,-9 0,-3 -17,-21 -17,-18 -41,-53 -24,-35 -49,-86 -25,-51 -42,-138 -17,-87 -17,-193 0,-106 17,-192 17,-86 41,-139 24,-53 49,-86 25,-33 42,-53 17,-20 17,-21 0,-9 -15,-9 h -3 -13 l -28,24 Q 180,-141 137,-14 94,113 94,250 Z"/>
<path id="id05" d="m 84,237 q 0,0 0,13 0,13 14,20 h 581 q 15,-8 15,-20 0,-12 -15,-20 H 98 q -14,7 -14,20 z"/>
<path id="id06" d="m 60,749 4,1 q 5,0 10,0 h 12 l 28,-24 q 94,-85 137,-212 43,-127 43,-264 0,-68 -10,-131 -10,-63 -23,-107 -13,-44 -37,-88 -24,-44 -38,-67 -14,-23 -41,-51 -27,-28 -32,-33 -5,-5 -23,-19 -3,-3 -4,-4 H 74 q -8,0 -11,0 -3,0 -5,3 -2,3 -3,9 1,1 11,13 155,161 155,475 0,314 -155,475 -10,12 -11,13 0,8 5,11 z"/>
</defs>
<rect x="0" y="-23" width="86" height="1.2" style="stroke-width:0;" transform="scale(1,-1)"/>
<g transform="matrix(0.019612,0,0,-0.019612,34.28,14.0422)">
<use xlink:href="#id01" x="0" y="0"/>
<use xlink:href="#id02" x="605" y="0"/>
</g>
<g transform="matrix(0.019612,0,0,-0.019612,1.18,42.6022)">
<use xlink:href="#id03" x="0" y="0"/>
<use xlink:href="#id02" x="456" y="0"/>
<use xlink:href="#id04" x="739" y="0"/>
<use xlink:href="#id01" x="1133" y="0"/>
<use xlink:href="#id05" x="1960" y="0"/>
<use xlink:href="#id03" x="2965" y="0"/>
<use xlink:href="#id06" x="3421" y="0"/>
<use xlink:href="#id02" x="3815" y="0"/>
</g>
</svg>
